<!--?xml version="1.0" standalone="no"?-->
              <svg id="sw-js-blob-svg" viewBox="0 0 100 100" xmlns="http://www.w3.org/2000/svg" version="1.1">
                    <defs> 
                        <linearGradient id="sw-gradient" x1="0" x2="1" y1="1" y2="0">
                            <stop id="stop1" stop-color="rgba(112.046, 244.826, 242.577, 0.38)" offset="0%"></stop>
                            <stop id="stop2" stop-color="rgba(242.549, 242.549, 242.549, 0.79)" offset="100%"></stop>
                        </linearGradient>
                    </defs>
                <path fill="url(#sw-gradient)" d="M22.1,-39C27.6,-35.2,30.3,-27.1,34,-19.9C37.7,-12.7,42.4,-6.3,43.9,0.9C45.4,8,43.6,16.1,39,21.8C34.5,27.6,27.2,31,20.2,34.1C13.3,37.3,6.6,40,0,40C-6.6,40,-13.2,37.2,-19.7,33.8C-26.2,30.4,-32.5,26.4,-37.4,20.7C-42.3,15,-45.7,7.5,-44.8,0.6C-43.8,-6.4,-38.4,-12.7,-33.5,-18.3C-28.5,-24,-24,-28.9,-18.5,-32.7C-13,-36.5,-6.5,-39.2,0.9,-40.8C8.3,-42.4,16.7,-42.8,22.1,-39Z" width="100%" height="100%" transform="translate(50 50)" stroke-width="0" style="transition: all 0.3s ease 0s;" stroke="url(#sw-gradient)"></path>
              </svg>