<!--?xml version="1.0" standalone="no"?-->
              <svg id="sw-js-blob-svg" viewBox="0 0 100 100" xmlns="http://www.w3.org/2000/svg" version="1.1">
                    <defs> 
                        <linearGradient id="sw-gradient" x1="0" x2="1" y1="1" y2="0">
                            <stop id="stop1" stop-color="rgba(46.159, 244.388, 255, 1)" offset="0%"></stop>
                            <stop id="stop2" stop-color="rgba(45.283, 119.602, 115.826, 0.81)" offset="100%"></stop>
                        </linearGradient>
                    </defs>
                <path fill="url(#sw-gradient)" d="M27.3,-31.9C34.3,-26.5,38.4,-17,38.8,-7.8C39.3,1.4,36.1,10.2,31.5,18.3C27,26.4,21,33.9,12.8,38C4.7,42.2,-5.7,43.1,-13.9,39.5C-22.1,35.9,-28.1,27.8,-32.8,19.2C-37.5,10.6,-40.7,1.4,-38.8,-6.4C-36.9,-14.1,-29.7,-20.5,-22.4,-25.8C-15.1,-31.2,-7.5,-35.4,1.3,-36.9C10.1,-38.5,20.2,-37.3,27.3,-31.9Z" width="100%" height="100%" transform="translate(50 50)" stroke-width="0" style="transition: all 0.3s ease 0s;" stroke="url(#sw-gradient)"></path>
              </svg>