<?xml version="1.0" standalone="no"?>
<svg xmlns:xlink="http://www.w3.org/1999/xlink" id="wave" style="transform:rotate(180deg); transition: 0.3s" viewBox="0 0 1440 490" version="1.1" xmlns="http://www.w3.org/2000/svg"><defs><linearGradient id="sw-gradient-0" x1="0" x2="0" y1="1" y2="0"><stop stop-color="rgba(69, 128, 150, 1)" offset="0%"/><stop stop-color="rgba(111, 203, 218, 1)" offset="100%"/></linearGradient></defs><path style="transform:translate(0, 0px); opacity:1" fill="url(#sw-gradient-0)" d="M0,343L40,359.3C80,376,160,408,240,392C320,376,400,310,480,269.5C560,229,640,212,720,187.8C800,163,880,131,960,130.7C1040,131,1120,163,1200,196C1280,229,1360,261,1440,302.2C1520,343,1600,392,1680,392C1760,392,1840,343,1920,310.3C2000,278,2080,261,2160,212.3C2240,163,2320,82,2400,89.8C2480,98,2560,196,2640,212.3C2720,229,2800,163,2880,114.3C2960,65,3040,33,3120,89.8C3200,147,3280,294,3360,343C3440,392,3520,343,3600,294C3680,245,3760,196,3840,196C3920,196,4000,245,4080,294C4160,343,4240,392,4320,400.2C4400,408,4480,376,4560,367.5C4640,359,4720,376,4800,367.5C4880,359,4960,327,5040,326.7C5120,327,5200,359,5280,326.7C5360,294,5440,196,5520,147C5600,98,5680,98,5720,98L5760,98L5760,490L5720,490C5680,490,5600,490,5520,490C5440,490,5360,490,5280,490C5200,490,5120,490,5040,490C4960,490,4880,490,4800,490C4720,490,4640,490,4560,490C4480,490,4400,490,4320,490C4240,490,4160,490,4080,490C4000,490,3920,490,3840,490C3760,490,3680,490,3600,490C3520,490,3440,490,3360,490C3280,490,3200,490,3120,490C3040,490,2960,490,2880,490C2800,490,2720,490,2640,490C2560,490,2480,490,2400,490C2320,490,2240,490,2160,490C2080,490,2000,490,1920,490C1840,490,1760,490,1680,490C1600,490,1520,490,1440,490C1360,490,1280,490,1200,490C1120,490,1040,490,960,490C880,490,800,490,720,490C640,490,560,490,480,490C400,490,320,490,240,490C160,490,80,490,40,490L0,490Z"/><defs><linearGradient id="sw-gradient-1" x1="0" x2="0" y1="1" y2="0"><stop stop-color="rgba(198, 219, 229, 1)" offset="0%"/><stop stop-color="rgba(111, 203, 218, 1)" offset="100%"/></linearGradient></defs><path style="transform:translate(0, 50px); opacity:0.9" fill="url(#sw-gradient-1)" d="M0,441L40,408.3C80,376,160,310,240,245C320,180,400,114,480,106.2C560,98,640,147,720,163.3C800,180,880,163,960,171.5C1040,180,1120,212,1200,204.2C1280,196,1360,147,1440,122.5C1520,98,1600,98,1680,130.7C1760,163,1840,229,1920,277.7C2000,327,2080,359,2160,351.2C2240,343,2320,294,2400,253.2C2480,212,2560,180,2640,147C2720,114,2800,82,2880,130.7C2960,180,3040,310,3120,375.7C3200,441,3280,441,3360,367.5C3440,294,3520,147,3600,106.2C3680,65,3760,131,3840,147C3920,163,4000,131,4080,130.7C4160,131,4240,163,4320,179.7C4400,196,4480,196,4560,187.8C4640,180,4720,163,4800,147C4880,131,4960,114,5040,89.8C5120,65,5200,33,5280,16.3C5360,0,5440,0,5520,24.5C5600,49,5680,98,5720,122.5L5760,147L5760,490L5720,490C5680,490,5600,490,5520,490C5440,490,5360,490,5280,490C5200,490,5120,490,5040,490C4960,490,4880,490,4800,490C4720,490,4640,490,4560,490C4480,490,4400,490,4320,490C4240,490,4160,490,4080,490C4000,490,3920,490,3840,490C3760,490,3680,490,3600,490C3520,490,3440,490,3360,490C3280,490,3200,490,3120,490C3040,490,2960,490,2880,490C2800,490,2720,490,2640,490C2560,490,2480,490,2400,490C2320,490,2240,490,2160,490C2080,490,2000,490,1920,490C1840,490,1760,490,1680,490C1600,490,1520,490,1440,490C1360,490,1280,490,1200,490C1120,490,1040,490,960,490C880,490,800,490,720,490C640,490,560,490,480,490C400,490,320,490,240,490C160,490,80,490,40,490L0,490Z"/><defs><linearGradient id="sw-gradient-2" x1="0" x2="0" y1="1" y2="0"><stop stop-color="rgba(111, 203, 218, 1)" offset="0%"/><stop stop-color="rgba(69, 128, 150, 1)" offset="100%"/></linearGradient></defs><path style="transform:translate(0, 100px); opacity:0.8" fill="url(#sw-gradient-2)" d="M0,147L40,147C80,147,160,147,240,179.7C320,212,400,278,480,261.3C560,245,640,147,720,130.7C800,114,880,180,960,245C1040,310,1120,376,1200,351.2C1280,327,1360,212,1440,163.3C1520,114,1600,131,1680,179.7C1760,229,1840,310,1920,302.2C2000,294,2080,196,2160,187.8C2240,180,2320,261,2400,269.5C2480,278,2560,212,2640,204.2C2720,196,2800,245,2880,294C2960,343,3040,392,3120,359.3C3200,327,3280,212,3360,179.7C3440,147,3520,196,3600,204.2C3680,212,3760,180,3840,147C3920,114,4000,82,4080,98C4160,114,4240,180,4320,196C4400,212,4480,180,4560,147C4640,114,4720,82,4800,57.2C4880,33,4960,16,5040,24.5C5120,33,5200,65,5280,89.8C5360,114,5440,131,5520,130.7C5600,131,5680,114,5720,106.2L5760,98L5760,490L5720,490C5680,490,5600,490,5520,490C5440,490,5360,490,5280,490C5200,490,5120,490,5040,490C4960,490,4880,490,4800,490C4720,490,4640,490,4560,490C4480,490,4400,490,4320,490C4240,490,4160,490,4080,490C4000,490,3920,490,3840,490C3760,490,3680,490,3600,490C3520,490,3440,490,3360,490C3280,490,3200,490,3120,490C3040,490,2960,490,2880,490C2800,490,2720,490,2640,490C2560,490,2480,490,2400,490C2320,490,2240,490,2160,490C2080,490,2000,490,1920,490C1840,490,1760,490,1680,490C1600,490,1520,490,1440,490C1360,490,1280,490,1200,490C1120,490,1040,490,960,490C880,490,800,490,720,490C640,490,560,490,480,490C400,490,320,490,240,490C160,490,80,490,40,490L0,490Z"/></svg>