<?xml version="1.0" standalone="no"?>
<svg xmlns:xlink="http://www.w3.org/1999/xlink" id="wave" style="transform:rotate(0deg); transition: 0.3s" viewBox="0 0 1440 290" version="1.1" xmlns="http://www.w3.org/2000/svg"><defs><linearGradient id="sw-gradient-0" x1="0" x2="0" y1="1" y2="0"><stop stop-color="rgba(60, 222, 224, 1)" offset="0%"/><stop stop-color="rgba(69, 128, 150, 0.58)" offset="100%"/></linearGradient></defs><path style="transform:translate(0, 0px); opacity:1" fill="url(#sw-gradient-0)" d="M0,87L40,82.2C80,77,160,68,240,62.8C320,58,400,58,480,87C560,116,640,174,720,174C800,174,880,116,960,96.7C1040,77,1120,97,1200,91.8C1280,87,1360,58,1440,43.5C1520,29,1600,29,1680,62.8C1760,97,1840,164,1920,169.2C2000,174,2080,116,2160,116C2240,116,2320,174,2400,169.2C2480,164,2560,97,2640,77.3C2720,58,2800,87,2880,120.8C2960,155,3040,193,3120,207.8C3200,222,3280,213,3360,217.5C3440,222,3520,242,3600,232C3680,222,3760,184,3840,164.3C3920,145,4000,145,4080,145C4160,145,4240,145,4320,145C4400,145,4480,145,4560,125.7C4640,106,4720,68,4800,77.3C4880,87,4960,145,5040,149.8C5120,155,5200,106,5280,116C5360,126,5440,193,5520,222.3C5600,251,5680,242,5720,236.8L5760,232L5760,290L5720,290C5680,290,5600,290,5520,290C5440,290,5360,290,5280,290C5200,290,5120,290,5040,290C4960,290,4880,290,4800,290C4720,290,4640,290,4560,290C4480,290,4400,290,4320,290C4240,290,4160,290,4080,290C4000,290,3920,290,3840,290C3760,290,3680,290,3600,290C3520,290,3440,290,3360,290C3280,290,3200,290,3120,290C3040,290,2960,290,2880,290C2800,290,2720,290,2640,290C2560,290,2480,290,2400,290C2320,290,2240,290,2160,290C2080,290,2000,290,1920,290C1840,290,1760,290,1680,290C1600,290,1520,290,1440,290C1360,290,1280,290,1200,290C1120,290,1040,290,960,290C880,290,800,290,720,290C640,290,560,290,480,290C400,290,320,290,240,290C160,290,80,290,40,290L0,290Z"/><defs><linearGradient id="sw-gradient-1" x1="0" x2="0" y1="1" y2="0"><stop stop-color="rgba(17.281, 225.686, 225.686, 0.75)" offset="0%"/><stop stop-color="rgba(69, 128, 150, 1)" offset="100%"/></linearGradient></defs><path style="transform:translate(0, 50px); opacity:0.9" fill="url(#sw-gradient-1)" d="M0,58L40,77.3C80,97,160,135,240,154.7C320,174,400,174,480,154.7C560,135,640,97,720,77.3C800,58,880,58,960,77.3C1040,97,1120,135,1200,130.5C1280,126,1360,77,1440,67.7C1520,58,1600,87,1680,111.2C1760,135,1840,155,1920,145C2000,135,2080,97,2160,101.5C2240,106,2320,155,2400,169.2C2480,184,2560,164,2640,130.5C2720,97,2800,48,2880,58C2960,68,3040,135,3120,154.7C3200,174,3280,145,3360,130.5C3440,116,3520,116,3600,101.5C3680,87,3760,58,3840,53.2C3920,48,4000,68,4080,96.7C4160,126,4240,164,4320,188.5C4400,213,4480,222,4560,212.7C4640,203,4720,174,4800,135.3C4880,97,4960,48,5040,29C5120,10,5200,19,5280,48.3C5360,77,5440,126,5520,145C5600,164,5680,155,5720,149.8L5760,145L5760,290L5720,290C5680,290,5600,290,5520,290C5440,290,5360,290,5280,290C5200,290,5120,290,5040,290C4960,290,4880,290,4800,290C4720,290,4640,290,4560,290C4480,290,4400,290,4320,290C4240,290,4160,290,4080,290C4000,290,3920,290,3840,290C3760,290,3680,290,3600,290C3520,290,3440,290,3360,290C3280,290,3200,290,3120,290C3040,290,2960,290,2880,290C2800,290,2720,290,2640,290C2560,290,2480,290,2400,290C2320,290,2240,290,2160,290C2080,290,2000,290,1920,290C1840,290,1760,290,1680,290C1600,290,1520,290,1440,290C1360,290,1280,290,1200,290C1120,290,1040,290,960,290C880,290,800,290,720,290C640,290,560,290,480,290C400,290,320,290,240,290C160,290,80,290,40,290L0,290Z"/><defs><linearGradient id="sw-gradient-2" x1="0" x2="0" y1="1" y2="0"><stop stop-color="rgba(32.571, 179.895, 225.686, 0.84)" offset="0%"/><stop stop-color="rgba(69, 128, 150, 0.95)" offset="100%"/></linearGradient></defs><path style="transform:translate(0, 100px); opacity:0.8" fill="url(#sw-gradient-2)" d="M0,116L40,106.3C80,97,160,77,240,82.2C320,87,400,116,480,106.3C560,97,640,48,720,29C800,10,880,19,960,62.8C1040,106,1120,184,1200,222.3C1280,261,1360,261,1440,222.3C1520,184,1600,106,1680,72.5C1760,39,1840,48,1920,87C2000,126,2080,193,2160,217.5C2240,242,2320,222,2400,207.8C2480,193,2560,184,2640,193.3C2720,203,2800,232,2880,246.5C2960,261,3040,261,3120,222.3C3200,184,3280,106,3360,62.8C3440,19,3520,10,3600,4.8C3680,0,3760,0,3840,29C3920,58,4000,116,4080,140.2C4160,164,4240,155,4320,154.7C4400,155,4480,164,4560,183.7C4640,203,4720,232,4800,227.2C4880,222,4960,184,5040,169.2C5120,155,5200,164,5280,149.8C5360,135,5440,97,5520,106.3C5600,116,5680,174,5720,203L5760,232L5760,290L5720,290C5680,290,5600,290,5520,290C5440,290,5360,290,5280,290C5200,290,5120,290,5040,290C4960,290,4880,290,4800,290C4720,290,4640,290,4560,290C4480,290,4400,290,4320,290C4240,290,4160,290,4080,290C4000,290,3920,290,3840,290C3760,290,3680,290,3600,290C3520,290,3440,290,3360,290C3280,290,3200,290,3120,290C3040,290,2960,290,2880,290C2800,290,2720,290,2640,290C2560,290,2480,290,2400,290C2320,290,2240,290,2160,290C2080,290,2000,290,1920,290C1840,290,1760,290,1680,290C1600,290,1520,290,1440,290C1360,290,1280,290,1200,290C1120,290,1040,290,960,290C880,290,800,290,720,290C640,290,560,290,480,290C400,290,320,290,240,290C160,290,80,290,40,290L0,290Z"/></svg>