<?xml version="1.0" standalone="no"?>
<svg xmlns:xlink="http://www.w3.org/1999/xlink" id="wave" style="transform:rotate(180deg); transition: 0.3s" viewBox="0 0 1440 490" version="1.1" xmlns="http://www.w3.org/2000/svg"><defs><linearGradient id="sw-gradient-0" x1="0" x2="0" y1="1" y2="0"><stop stop-color="rgba(13.127, 144.768, 159.66, 0.72)" offset="0%"/><stop stop-color="rgba(127.5, 242.043, 255, 0.5)" offset="100%"/></linearGradient></defs><path style="transform:translate(0, 0px); opacity:1" fill="url(#sw-gradient-0)" d="M0,147L26.7,187.8C53.3,229,107,310,160,334.8C213.3,359,267,327,320,318.5C373.3,310,427,327,480,343C533.3,359,587,376,640,367.5C693.3,359,747,327,800,285.8C853.3,245,907,196,960,155.2C1013.3,114,1067,82,1120,130.7C1173.3,180,1227,310,1280,359.3C1333.3,408,1387,376,1440,310.3C1493.3,245,1547,147,1600,155.2C1653.3,163,1707,278,1760,334.8C1813.3,392,1867,392,1920,400.2C1973.3,408,2027,425,2080,383.8C2133.3,343,2187,245,2240,196C2293.3,147,2347,147,2400,147C2453.3,147,2507,147,2560,163.3C2613.3,180,2667,212,2720,245C2773.3,278,2827,310,2880,310.3C2933.3,310,2987,278,3040,285.8C3093.3,294,3147,343,3200,334.8C3253.3,327,3307,261,3360,236.8C3413.3,212,3467,229,3520,261.3C3573.3,294,3627,343,3680,343C3733.3,343,3787,294,3813,269.5L3840,245L3840,490L3813.3,490C3786.7,490,3733,490,3680,490C3626.7,490,3573,490,3520,490C3466.7,490,3413,490,3360,490C3306.7,490,3253,490,3200,490C3146.7,490,3093,490,3040,490C2986.7,490,2933,490,2880,490C2826.7,490,2773,490,2720,490C2666.7,490,2613,490,2560,490C2506.7,490,2453,490,2400,490C2346.7,490,2293,490,2240,490C2186.7,490,2133,490,2080,490C2026.7,490,1973,490,1920,490C1866.7,490,1813,490,1760,490C1706.7,490,1653,490,1600,490C1546.7,490,1493,490,1440,490C1386.7,490,1333,490,1280,490C1226.7,490,1173,490,1120,490C1066.7,490,1013,490,960,490C906.7,490,853,490,800,490C746.7,490,693,490,640,490C586.7,490,533,490,480,490C426.7,490,373,490,320,490C266.7,490,213,490,160,490C106.7,490,53,490,27,490L0,490Z"/></svg>